<svg xmlns="http://www.w3.org/2000/svg" viewBox="0 0 512 512" width="512" height="512">
  <defs>
    <linearGradient id="bg" x1="0" y1="0" x2="1" y2="1">
      <stop offset="0" stop-color="#12203f"/>
      <stop offset="1" stop-color="#0a1226"/>
    </linearGradient>
    <radialGradient id="ball" cx="0.4" cy="0.34" r="0.85">
      <stop offset="0" stop-color="#ff9d3c"/>
      <stop offset="1" stop-color="#d2531a"/>
    </radialGradient>
  </defs>
  <rect width="512" height="512" rx="112" fill="url(#bg)"/>

  <!-- basketball -->
  <circle cx="248" cy="248" r="150" fill="url(#ball)"/>
  <g fill="none" stroke="#1a1206" stroke-width="9" stroke-linecap="round">
    <circle cx="248" cy="248" r="150"/>
    <line x1="248" y1="98" x2="248" y2="398"/>
    <line x1="98" y1="248" x2="398" y2="248"/>
    <path d="M142 112 Q248 248 142 384"/>
    <path d="M354 112 Q248 248 354 384"/>
  </g>

  <!-- schedule badge (bottom-right) -->
  <g transform="translate(330,330)">
    <rect x="0" y="0" width="120" height="110" rx="22" fill="#ffffff"/>
    <rect x="0" y="0" width="120" height="30" rx="22" fill="#ff7a18"/>
    <rect x="0" y="14" width="120" height="16" fill="#ff7a18"/>
    <g fill="#1a2238">
      <rect x="18" y="46" width="22" height="18" rx="4"/>
      <rect x="50" y="46" width="22" height="18" rx="4"/>
      <rect x="82" y="46" width="22" height="18" rx="4"/>
      <rect x="18" y="72" width="22" height="18" rx="4"/>
      <rect x="50" y="72" width="22" height="18" rx="4"/>
      <rect x="82" y="72" width="22" height="18" rx="4"/>
    </g>
  </g>
</svg>
